<svg width="16" height="16" viewBox="0 0 16 16" fill="none" xmlns="http://www.w3.org/2000/svg">
<path d="M9.48197 8.45781L15.403 2.53681C15.4905 2.44935 15.5599 2.3455 15.6073 2.23121C15.6547 2.11691 15.6791 1.9944 15.6792 1.87066C15.6792 1.74693 15.6549 1.6244 15.6076 1.51006C15.5603 1.39573 15.4909 1.29183 15.4035 1.20431C15.316 1.11678 15.2122 1.04734 15.0979 0.999945C14.9836 0.952552 14.8611 0.928134 14.7373 0.928088C14.6136 0.928041 14.4911 0.952367 14.3767 0.999675C14.2624 1.04698 14.1585 1.11635 14.071 1.20381L8.14897 7.12581L2.22797 1.20381C2.0512 1.02704 1.81146 0.927734 1.56147 0.927734C1.31148 0.927734 1.07174 1.02704 0.89497 1.20381C0.718203 1.38057 0.618896 1.62032 0.618896 1.87031C0.618896 2.12029 0.718203 2.36004 0.89497 2.53681L6.81697 8.45781L0.89497 14.3798C0.763471 14.5116 0.673936 14.6794 0.63765 14.862C0.601364 15.0447 0.619951 15.2339 0.691069 15.406C0.762187 15.5781 0.882652 15.7252 1.03728 15.829C1.19191 15.9327 1.37378 15.9883 1.55997 15.9888C1.68357 15.9891 1.80601 15.9649 1.92017 15.9175C2.03433 15.8702 2.13793 15.8006 2.22497 15.7128L8.14897 9.79081L14.07 15.7118C14.1572 15.7993 14.2608 15.8688 14.3749 15.9162C14.4891 15.9635 14.6114 15.9879 14.735 15.9878C14.8586 15.9884 14.9811 15.9643 15.0953 15.9169C15.2095 15.8695 15.3131 15.7998 15.4 15.7118C15.5763 15.535 15.6754 15.2955 15.6754 15.0458C15.6754 14.7961 15.5763 14.5566 15.4 14.3798L9.48197 8.45781Z" fill="#B2B2D9"/>
</svg>
